<svg width="171" height="32" viewBox="0 0 171 32" fill="none" xmlns="http://www.w3.org/2000/svg">
<g clip-path="url(#clip0_2_3945)">
<path d="M75.4747 6.04007C73.208 6.04007 71.1911 7.07415 69.8841 8.72285C68.7516 7.03819 66.8818 6.04007 64.6613 6.04007C62.564 6.04007 60.6548 7.00224 59.3393 8.53624L59.1135 8.04146C58.7064 7.14948 57.8185 6.57765 56.8383 6.57765H54.0361V24.799H60.3076V14.8092C60.3076 12.5442 61.2399 11.3269 62.9386 11.3269C64.2525 11.3269 64.947 12.3028 64.947 14.1484V24.8008H71.0542V14.8109C71.0542 12.5168 71.937 11.3286 73.6613 11.3286C74.994 11.3286 75.6937 12.2463 75.6937 14.1501V24.8025H81.9634V13.3728C81.9634 9.08067 79.3717 6.04007 75.4713 6.04007" fill="#191C1B"/>
<path d="M83.9615 15.6892C83.9615 10.0411 88.2331 5.98186 94.1693 5.98186C100.105 5.98186 104.377 10.0411 104.377 15.6892C104.377 21.3373 100.087 25.3965 94.1693 25.3965C88.252 25.3965 83.9615 21.3184 83.9615 15.6892ZM94.1693 19.7588C96.4548 19.7588 98.0954 18.0981 98.0954 15.6892C98.0954 13.2803 96.4548 11.6196 94.1693 11.6196C91.8838 11.6196 90.2432 13.2803 90.2432 15.6892C90.2432 18.0981 91.8838 19.7588 94.1693 19.7588Z" fill="#191C1B"/>
<path d="M125.828 -6.05583e-05V24.8008H121.186L120.595 23.4482C119.113 24.6963 117.224 25.4171 115.103 25.4171C109.518 25.4171 105.537 21.3527 105.537 15.6909C105.537 10.0292 109.516 5.98357 115.103 5.98357C116.785 5.98357 118.323 6.43726 119.628 7.24878V-6.05583e-05H125.828ZM120.018 15.6892C120.018 13.3094 118.292 11.5186 115.943 11.5186C113.594 11.5186 111.868 13.3094 111.868 15.6892C111.868 18.069 113.594 19.8581 115.943 19.8581C118.292 19.8581 120.018 18.0672 120.018 15.6892" fill="#191C1B"/>
<path d="M148.465 6.56053V24.7819H143.617L143.08 23.4927C141.59 24.7015 139.701 25.3983 137.587 25.3983C132.02 25.3983 128.041 21.3338 128.041 15.6721C128.041 10.0103 132.02 6.01267 137.587 6.01267C139.732 6.01267 141.647 6.73002 143.15 7.97126L143.792 6.56224H148.465V6.56053ZM142.5 15.6858C142.5 13.3214 140.774 11.5443 138.425 11.5443C136.076 11.5443 134.35 13.3214 134.35 15.6858C134.35 18.0501 136.076 19.8409 138.425 19.8409C140.774 19.8409 142.5 18.0638 142.5 15.6858Z" fill="#191C1B"/>
<path d="M162.846 24.8008L158.287 17.0948V24.8008H152.015V-6.05583e-05H158.287V13.7169L162.623 6.57936H169.665L163.99 15.2629L170.238 24.8008H162.846Z" fill="#191C1B"/>
<path d="M167.504 2.96864H166.033C166.004 2.96864 165.98 2.99261 165.98 3.02171V3.24086C165.98 3.26996 166.004 3.29393 166.033 3.29393H166.592V4.87929C166.592 4.9084 166.616 4.93237 166.645 4.93237H166.89C166.919 4.93237 166.943 4.9084 166.943 4.87929V3.29393H167.504C167.533 3.29393 167.557 3.26996 167.557 3.24086V3.02171C167.557 2.99261 167.533 2.96864 167.504 2.96864" fill="#191C1B"/>
<path d="M169.637 2.96864H169.307C169.285 2.96864 169.264 2.98234 169.257 3.00459L168.813 4.2972C168.794 4.35027 168.778 4.39649 168.765 4.4393C168.753 4.40334 168.741 4.36397 168.725 4.32116L168.286 3.00631C168.279 2.98405 168.258 2.97035 168.236 2.97035H167.867C167.837 2.97035 167.814 2.99432 167.814 3.02343V4.87929C167.814 4.9084 167.837 4.93237 167.867 4.93237H168.103C168.132 4.93237 168.156 4.9084 168.156 4.87929V3.61751L168.59 4.8947C168.597 4.91525 168.618 4.93065 168.64 4.93065H168.86C168.883 4.93065 168.903 4.91696 168.91 4.89641L169.346 3.63805V4.87929C169.346 4.9084 169.37 4.93237 169.399 4.93237H169.635C169.664 4.93237 169.688 4.9084 169.688 4.87929V3.02343C169.688 2.99432 169.664 2.97035 169.635 2.97035" fill="#191C1B"/>
<path d="M20.857 31.9999C18.3747 31.9999 16.0379 30.8631 14.5051 28.9354C12.6798 30.7416 10.4285 31.6901 8.0626 31.5771C4.4188 31.4093 2.11277 28.3652 1.86129 28.0194C1.85103 28.0074 1.84247 27.9937 1.83392 27.98C-0.265117 24.96 -0.0683853 22.1471 0.0907104 19.8889C0.164271 18.836 1.11029 14.6055 3.01089 10.3835C5.67104 4.47696 9.02744 1.09908 12.9877 0.340638C16.5289 -0.337335 19.3841 1.5425 20.857 2.64335C22.3299 1.5425 25.1868 -0.337335 28.7262 0.340638C32.6865 1.09908 36.0429 4.47867 38.7014 10.3853C40.602 14.6072 41.548 18.8377 41.6215 19.8889C41.7806 22.1488 41.9774 24.96 39.88 27.9817C39.8715 27.9954 39.8629 28.0074 39.8527 28.0211C39.6012 28.367 37.2952 31.4093 33.6514 31.5788C31.2906 31.6901 29.0393 30.7467 27.2088 28.9354C25.676 30.8648 23.3392 32.0016 20.857 32.0016M16.7752 24.1827L17.9642 25.893C18.6313 26.8535 19.6869 27.4048 20.857 27.4048C22.0271 27.4048 23.0826 26.8535 23.7498 25.893L24.9387 24.1827C25.4348 23.4551 26.2645 23.0322 27.1353 23.0339C28.03 23.0425 28.8494 23.4979 29.3318 24.2529C29.8724 25.1209 31.3282 27.0829 33.4409 26.987C34.6538 26.9305 35.7795 25.7886 36.1336 25.3263C37.2267 23.7324 37.1925 22.344 37.0437 20.2227C36.8281 18.146 33.4871 5.93049 27.864 4.85532C25.9925 4.49579 24.2065 5.86372 23.2485 6.59819C22.9697 6.8122 22.749 6.97998 22.5181 7.12208C22.0151 7.43025 21.5327 7.59975 21.04 7.63912C20.9186 7.64939 20.7971 7.64939 20.6739 7.63912C20.1812 7.59975 19.6971 7.43025 19.1959 7.12208C18.9649 6.98169 18.746 6.8122 18.4654 6.59991C17.5074 5.86544 15.7231 4.49922 13.8499 4.85704C8.22341 5.93392 4.87898 18.1717 4.67027 20.2313C4.52144 22.344 4.48723 23.7359 5.5855 25.3349C5.9208 25.7766 7.05329 26.9323 8.27473 26.9888C10.3875 27.0863 11.8433 25.1226 12.3702 24.2751C12.8628 23.4996 13.684 23.0442 14.5787 23.0356C15.4563 23.0356 16.2791 23.4568 16.7752 24.1844" fill="#191C1B"/>
</g>
<defs>
<clipPath id="clip0_2_3945">
<rect width="170.238" height="32" fill="white"/>
</clipPath>
</defs>
</svg>
